<svg xmlns="http://www.w3.org/2000/svg" xmlns:xlink="http://www.w3.org/1999/xlink" width="1494.745" height="1214.397" viewBox="0 0 1494.745 1214.397"><defs><clipPath id="a"><rect width="828" height="503" rx="8" fill="#ffcece" opacity="0.589"/></clipPath></defs><g transform="translate(-122.469 -316.289)"><g transform="matrix(0.996, -0.087, 0.087, 0.996, -85.119, -120.721)"><path d="M1783.708,798.277S1569.594,648.991,1621.7,532.616c0,0,17.891-35.909,57.068-19.445,0,0,45.995,20.469,20.506,63.666,0,0-96.539,116.254-255.969-94.84l-47.07-37.4" transform="translate(-161.499 182.669)" fill="none" stroke="#000" stroke-miterlimit="10" stroke-width="2.5" stroke-dasharray="12 24"/><path d="M1460.72,564.278l69-.73,2.339-60.89-7.739-31.79-160.348-61.174-72.133-23.99,45.967,57.533,131.228,113.57" transform="translate(-168.267 178.833)" fill="#e3e3e3" stroke="#000" stroke-miterlimit="10" stroke-width="1.62"/><path d="M1486.015,539.534l-59.6,55.013-134.4-207.777Z" transform="translate(-167.394 179.901)" fill="#fff" stroke="#000" stroke-miterlimit="10" stroke-width="1.62"/><path d="M1585.193,448.254l-54.83,53.829L1294.2,385.637Z" transform="translate(-166.486 179.476)" fill="#fff" stroke="#000" stroke-miterlimit="10" stroke-width="1.62"/><line x1="42.832" y1="23.165" transform="translate(1318.621 719.217)" fill="#fff" stroke="#000" stroke-miterlimit="10" stroke-width="1.079"/></g><path d="M533.543,1095.033,898.515,871.164s43.386-31.846,94.651,0,361.389,223.963,361.389,223.963l-400.6,25.894Z" transform="translate(-68.508 -356)" fill="#fac36b"/><path d="M533.543,883l364.972,223.869s43.386,31.846,94.651,0S1354.554,882.9,1354.554,882.9l-400.6-25.894Z" transform="translate(-68.508 -144)" fill="#fac36b"/><g transform="translate(534 579)" fill="#fff" stroke="#707070" stroke-width="1.62"><rect width="679" height="482" stroke="none"/><rect x="0.81" y="0.81" width="677.38" height="480.38" fill="none"/></g><path d="M0,0,410.45,233.278,821.4,0V503H0Z" transform="translate(465 739)" fill="#ffdda7"/><g transform="translate(460 739)" clip-path="url(#a)"><path d="M535.525,1142.556,903.982,871.164s44.127-31.846,96.268,0,363.992,271.622,363.992,271.622l-398.691.094Z" transform="translate(-535.525 -638.906)" fill="#fac36b"/></g><g transform="translate(-15.488 15.825)"><path d="M0,162.76s191.857-9.4,186.324-126.834c0,0-3.265-36.847-42.437-35.908,0,0-33.3,6.529-29.413,39.428,0,0,34.086,140.608,242.02,13.108l52.994-16.248" transform="matrix(0.995, -0.105, 0.105, 0.995, 138.149, 1351.743)" fill="none" stroke="#000" stroke-miterlimit="10" stroke-width="2.5" stroke-dasharray="12 24"/><path d="M76.023,160.974,0,144.6l11.414-68.38,15.37-33.74L219.222,10.194,304.5,0,240.874,53.449,69.157,150.675" transform="matrix(0.995, -0.105, 0.105, 0.995, 483.068, 1222.937)" fill="#e3e3e3" stroke="#000" stroke-miterlimit="10" stroke-width="2"/><path d="M0,126.595l53.882,74.494L249.46,0Z" transform="matrix(0.995, -0.105, 0.105, 0.995, 536.014, 1219.691)" fill="#fff" stroke="#000" stroke-miterlimit="10" stroke-width="2"/><line y1="17.045" x2="57.594" transform="matrix(0.995, -0.105, 0.105, 0.995, 495.961, 1349.439)" fill="#fff" stroke="#000" stroke-miterlimit="10" stroke-width="1"/><path d="M0,162.76s191.857-9.4,186.324-126.834c0,0-3.265-36.847-42.437-35.908,0,0-33.3,6.529-29.413,39.428,0,0,34.086,140.608,242.02,13.108l52.994-16.248" transform="matrix(0.995, -0.105, 0.105, 0.995, 138.149, 1351.743)" fill="none" stroke="#000" stroke-miterlimit="10" stroke-width="2.5" stroke-dasharray="12 24"/><path d="M76.023,160.974,0,144.6l11.414-68.38,15.37-33.74L219.222,10.194,304.5,0,240.874,53.449,69.157,150.675" transform="matrix(0.995, -0.105, 0.105, 0.995, 483.068, 1222.937)" fill="#e3e3e3" stroke="#000" stroke-miterlimit="10" stroke-width="2"/><path d="M0,126.595l53.882,74.494L249.46,0Z" transform="matrix(0.995, -0.105, 0.105, 0.995, 536.014, 1219.691)" fill="#fff" stroke="#000" stroke-miterlimit="10" stroke-width="2"/><line y1="17.045" x2="57.594" transform="matrix(0.995, -0.105, 0.105, 0.995, 495.961, 1349.439)" fill="#fff" stroke="#000" stroke-miterlimit="10" stroke-width="1"/><path d="M0,2.137,48.761,75.2,336.172,0Z" transform="matrix(0.995, -0.105, 0.105, 0.995, 445.251, 1227.95)" fill="#fff" stroke="#000" stroke-miterlimit="10" stroke-width="2"/></g></g></svg>